<?xml version="1.0" encoding="utf-8"?>
<!-- Generator: Adobe Illustrator 16.0.0, SVG Export Plug-In . SVG Version: 6.00 Build 0)  -->
<!DOCTYPE svg PUBLIC "-//W3C//DTD SVG 1.1//EN" "http://www.w3.org/Graphics/SVG/1.1/DTD/svg11.dtd" [
	<!ENTITY ns_flows "http://ns.adobe.com/Flows/1.0/">
	<!ENTITY ns_extend "http://ns.adobe.com/Extensibility/1.0/">
	<!ENTITY ns_ai "http://ns.adobe.com/AdobeIllustrator/10.0/">
	<!ENTITY ns_graphs "http://ns.adobe.com/Graphs/1.0/">
]>
<svg version="1.1" id="Layer_1" xmlns:x="&ns_extend;" xmlns:i="&ns_ai;" xmlns:graph="&ns_graphs;"
	 xmlns="http://www.w3.org/2000/svg" xmlns:xlink="http://www.w3.org/1999/xlink" xmlns:a="http://ns.adobe.com/AdobeSVGViewerExtensions/3.0/"
	 x="0px" y="0px" width="263.622px" height="65.197px" viewBox="0 0 263.622 65.197" enable-background="new 0 0 263.622 65.197"
	 xml:space="preserve">
<g>
	<g>
		<path fill="#009DE0" d="M33.87,9.139c-9.603,0-23.134,17.604-23.134,34.482c0,10.184,6.329,13.968,11.931,13.968
			c9.021,0,14.841-8.657,16.223-14.477c1.091-4.22-3.492-6.984-4.365-4.293c-2.619,8.003-7.639,13.822-11.058,13.822
			c-2.619,0-4.292-2.691-4.292-8.147c0-15.35,12.512-32.3,16.513-32.3c2.401,0-1.455,7.419-2.619,13.53
			c-0.8,3.929,5.893,5.603,7.566,2.037C44.49,19.542,43.909,9.139,33.87,9.139z"/>
	</g>
	<g>
		<path fill="#009DE0" d="M81.077,22.378c2.546,0,5.602-3.055,6.911-6.764c1.309-3.784,0.364-6.767-2.11-6.767
			s-5.602,2.982-6.838,6.767C77.73,19.323,78.603,22.378,81.077,22.378z"/>
	</g>
	<g>
		<path fill="#009DE0" d="M108.354,9.721c-1.091,2.764-5.819,16.586-8.729,26.189c-1.028,3.353-2.245,7.141-3.033,10.579
			c-1.315,1.563-2.767,2.806-4.096,2.806c-2.619,0-1.091-5.674,0.509-11.274c3.855-13.313,8.148-24.226,8.875-26.699
			c0.946-3.056-5.237-5.747-7.056-1.601c-1.091,2.764-5.82,16.586-8.729,26.189c-0.691,2.252-1.462,4.7-2.137,7.108
			c-1.744,2.65-4.401,6.276-6.009,6.276c-4.074,0,4.074-19.132,4.729-20.879c1.164-2.981-4.801-5.456-6.984-1.6
			c-1.485,2.672-4.349,9.991-6.029,16.803c-1.731,2.566-4.119,5.676-5.609,5.676c-2.909,0,0.728-10.039,2.838-16.295
			c1.309-4.002,0.509-9.603-3.929-9.603c-3.565,0-7.129,4.146-9.893,9.021c2.037-7.202,4.51-14.841,6.983-21.097
			c1.164-2.982-5.237-5.747-6.983-1.601c-6.184,14.55-12.367,38.992-12.367,42.994c0,4.656,6.038,6.475,6.547,3.273
			c0.292-1.892,1.165-5.892,2.474-10.985c0,0,0,0,0,0.073c1.455-5.602,6.693-13.749,8.73-13.749c0.945,0,0.291,3.055-0.218,4.583
			c-1.674,5.455-3.856,12.076-3.856,16.44c0,3.202,1.165,5.238,3.71,5.238c3.623,0,7.591-4.398,10.494-8.456
			c-0.152,1.153-0.239,2.238-0.239,3.218c0,3.202,1.091,5.238,3.638,5.238c3.675,0,7.671-4.419,10.567-8.486
			c-0.189,1.166-0.312,2.271-0.312,3.248c0,3.202,1.382,5.238,4.292,5.238c3.329,0,6.605-2.786,9.279-5.974
			c-0.012,0.243-0.041,0.505-0.041,0.735c0,3.202,1.382,5.238,4.292,5.238c6.911,0,13.604-12.003,15.131-14.695
			c0.146-0.363,0.146-0.728-0.073-1.018c-0.291-0.729-1.236-0.946-1.672-0.219c-1.528,2.546-4.729,7.638-7.42,7.638
			c-2.62,0-1.092-5.674,0.508-11.274c3.856-13.313,8.148-24.226,8.876-26.699C116.356,8.266,110.173,5.574,108.354,9.721z"/>
	</g>
	<g>
		<path fill="#009DE0" d="M252.81,41.876c-0.363-0.729-1.308-0.946-1.673-0.219c-1.601,2.983-7.712,10.839-13.823,10.839
			c-2.835,0-4.436-2.546-4.436-6.11c0-0.728,0.071-1.455,0.144-2.183c7.639,2.619,16.078-4.073,16.078-12.44
			c0-5.092-4.002-8.365-7.784-8.365c-7.581,0-15.421,9.431-16.349,20.881c-2.638,3.512-7.359,8.218-12.094,8.218
			c-2.838,0-4.438-2.546-4.438-6.11c0-8.585,5.895-17.97,8.586-17.97c0.799,0,1.381,0.802,1.381,1.747
			c0,2.036-1.381,4.001-2.691,5.819c-1.019,1.383-1.019,3.564,0.146,5.02c1.454,1.746,3.347,1.455,4.438,0.437
			c2.618-2.4,4.364-5.819,4.364-9.676c0-5.092-4.001-8.365-7.784-8.365c-7.625,0-15.506,9.536-16.36,21.071
			c-1.655,2.354-3.698,4.826-5.024,4.826c-4.074,0,4.073-19.132,4.729-20.879c1.164-2.981-4.874-5.456-6.983-1.6
			c-0.509,0.873-1.091,2.182-1.746,3.782c0.655-3.273-0.508-7.201-4.511-7.201c-5.019,0-10.692,4.947-13.966,16.223
			c-0.493,1.722-0.831,3.335-1.055,4.853c-1.747,2.532-4.074,5.332-6.145,5.332c-2.328,0-4.802-6.328-5.02-11.202
			c8.729-2.765,16.003-8.731,16.003-17.532c0-7.931-8.22-12.076-16.222-12.076c-14.041,0-21.679,11.565-21.679,16.804
			c0,6.038,5.747,6.838,5.747,4.002c0-5.821,6.184-17.097,15.641-17.097c4.51,0,7.348,2.4,7.348,7.493
			c0,7.711-6.111,13.822-12.076,16.077c1.6-5.166,3.492-10.839,5.82-16.514c1.162-2.909-6.039-5.674-7.783-1.527
			c-6.111,14.549-10.187,30.48-10.187,34.482c0,4.583,6.767,6.475,7.275,3.273c0.437-2.546,1.892-8.875,3.491-14.623
			c1.02,6.039,3.202,16.224,8.585,16.224c2.847,0,6.274-4.325,8.916-8.372c0.224,5.262,2.45,8.372,5.776,8.372
			c3.928,0,6.691-3.128,8.438-6.038c0,0.291,0,0.582,0,0.8c0,3.202,1.091,5.238,3.639,5.238c3.849,0,8.093-4.969,11.029-9.217
			c0.748,6.229,5.291,9.217,10.208,9.217c6.113,0,11.001-5.023,14.205-9.412c0.678,6.364,5.266,9.412,10.235,9.412
			c8.948,0,15.276-10.767,17.532-14.55C252.883,42.748,252.955,42.166,252.81,41.876z M241.461,28.416
			c0.8,0,1.382,0.802,1.382,1.747c0,4.873-5.31,11.202-9.239,10.621C235.277,34.164,239.352,28.416,241.461,28.416z M187.271,41.876
			c-2.255,6.619-5.311,11.348-6.912,10.548c-1.526-0.8-1.018-6.766,1.238-13.386c2.255-6.62,5.382-11.349,6.911-10.622
			C190.108,29.218,189.526,35.256,187.271,41.876z"/>
	</g>
	<g>
		<g>
			<g>
				<path fill="#009DE0" d="M133.244,42.829c0.561,0.471-1.202,3.291-2.204,2.514c-0.371-0.279-0.823-0.69-1.355-1.233
					c-1.269,0.942-2.699,1.622-4.102,1.814c-2.435,0.282-5.578-0.794-5.969-3.288c-0.478-3.076,1.788-5.7,3.537-7.1
					c-0.818-1.418-1.422-2.784-1.584-3.845c-0.626-3.998,2.644-6.604,5.601-6.864c2.578-0.226,4.658,0.979,4.856,3.247
					c0.35,3.988-3.37,6.219-4.335,7.064c-0.032,0.038-0.097,0.079-0.128,0.116c0.705,1.323,1.516,2.674,2.42,3.911
					c0.736-1.485,1.203-2.877,1.155-3.427c-0.085-0.963,2.913,0.022,2.993,0.949c0.133,1.513-0.708,3.388-2.017,5.062
					C132.49,42.133,132.871,42.514,133.244,42.829z M127.964,42.252c-1.081-1.257-2.213-2.717-3.242-4.187
					c-0.741,1.035-1.374,2.511-1.176,3.984c0.224,1.365,1.115,2.05,1.733,1.995C126.173,43.967,127.113,43.226,127.964,42.252z
					 M125.521,30.168c0.131,0.716,0.422,1.66,0.862,2.729c1.09-0.994,2.701-3.181,2.41-4.922c-0.103-0.788-0.639-1.364-1.46-1.257
					C126.438,26.796,125.187,27.944,125.521,30.168z"/>
			</g>
		</g>
		<g>
			<g>
				<path fill="#009DE0" d="M133.244,42.829c0.561,0.471-1.202,3.291-2.204,2.514c-0.371-0.279-0.823-0.69-1.355-1.233
					c-1.269,0.942-2.699,1.622-4.102,1.814c-2.435,0.282-5.578-0.794-5.969-3.288c-0.478-3.076,1.788-5.7,3.537-7.1
					c-0.818-1.418-1.422-2.784-1.584-3.845c-0.626-3.998,2.644-6.604,5.601-6.864c2.578-0.226,4.658,0.979,4.856,3.247
					c0.35,3.988-3.37,6.219-4.335,7.064c-0.032,0.038-0.097,0.079-0.128,0.116c0.705,1.323,1.516,2.674,2.42,3.911
					c0.736-1.485,1.203-2.877,1.155-3.427c-0.085-0.963,2.913,0.022,2.993,0.949c0.133,1.513-0.708,3.388-2.017,5.062
					C132.49,42.133,132.871,42.514,133.244,42.829z M127.964,42.252c-1.081-1.257-2.213-2.717-3.242-4.187
					c-0.741,1.035-1.374,2.511-1.176,3.984c0.224,1.365,1.115,2.05,1.733,1.995C126.173,43.967,127.113,43.226,127.964,42.252z
					 M125.521,30.168c0.131,0.716,0.422,1.66,0.862,2.729c1.09-0.994,2.701-3.181,2.41-4.922c-0.103-0.788-0.639-1.364-1.46-1.257
					C126.438,26.796,125.187,27.944,125.521,30.168z"/>
			</g>
		</g>
	</g>
</g>
</svg>
